<svg xmlns="http://www.w3.org/2000/svg" width="15.169" height="16.981" viewBox="0 0 15.169 16.981">
  <g id="Group_3126" data-name="Group 3126" transform="translate(0 0)">
    <g id="Group_3078" data-name="Group 3078" transform="translate(0 0)">
      <path id="Path_10858" data-name="Path 10858" d="M11.23,24.806H.467A.467.467,0,0,1,0,24.339V10.678a.467.467,0,0,1,.467-.467H11.23a.467.467,0,0,1,.467.467v13.66a.467.467,0,0,1-.467.467m-10.3-.935h9.828V11.146H.935Z" transform="translate(0 -7.825)"/>
      <path id="Path_10861" data-name="Path 10861" d="M28.507,13.658H25.182a.467.467,0,0,1,0-.935h2.858V.935H18.95V2.7a.467.467,0,1,1-.935,0V.467A.467.467,0,0,1,18.482,0H28.507a.467.467,0,0,1,.467.467V13.19a.467.467,0,0,1-.467.467" transform="translate(-13.805 0)"/>
    </g>
  </g>
</svg>
