<svg id="Group_3083" data-name="Group 3083" xmlns="http://www.w3.org/2000/svg" xmlns:xlink="http://www.w3.org/1999/xlink" width="8.402" height="11.195" viewBox="0 0 8.402 11.195">
  <defs>
    <clipPath id="clip-path">
      <rect id="Rectangle_2754" data-name="Rectangle 2754" width="8.402" height="11.195" fill="none"/>
    </clipPath>
  </defs>
  <g id="Group_3082" data-name="Group 3082" clip-path="url(#clip-path)">
    <path id="Path_10866" data-name="Path 10866" d="M8.4,2.537A1.055,1.055,0,0,0,7.348,1.483H5.9s0-.009,0-.013A1.788,1.788,0,0,0,5.653.546,1.058,1.058,0,0,0,4.755,0H3.647a1.058,1.058,0,0,0-.9.546A1.788,1.788,0,0,0,2.5,1.47s0,.009,0,.013H1.054A1.054,1.054,0,0,0,.465,3.411L.895,9.665a1.492,1.492,0,0,0,1.436,1.53h3.74a1.492,1.492,0,0,0,1.436-1.53l.429-6.254A1.054,1.054,0,0,0,8.4,2.537M3.647.623H4.755c.286,0,.52.381.52.847H3.127c0-.466.234-.847.52-.847M1.054,2.105H7.348a.431.431,0,0,1,.087.854H.967a.431.431,0,0,1,.087-.854M6.885,9.632c0,.007,0,.014,0,.021a.872.872,0,0,1-.814.918H2.331a.872.872,0,0,1-.814-.918c0-.007,0-.014,0-.021L1.1,3.591H7.3Z" transform="translate(0 0)" fill="#231f20"/>
    <path id="Path_10867" data-name="Path 10867" d="M152.52,198.1a.311.311,0,0,0-.311.311v3.2a.311.311,0,1,0,.623,0v-3.2a.311.311,0,0,0-.311-.311" transform="translate(-148.319 -193.034)" fill="#231f20"/>
    <path id="Path_10868" data-name="Path 10868" d="M206.34,222.417a.311.311,0,0,0-.311.311v1.956a.311.311,0,0,0,.623,0v-1.956a.311.311,0,0,0-.311-.311" transform="translate(-200.764 -216.733)" fill="#231f20"/>
    <path id="Path_10869" data-name="Path 10869" d="M98.7,222.417a.311.311,0,0,0-.311.311v1.956a.311.311,0,0,0,.623,0v-1.956a.311.311,0,0,0-.311-.311" transform="translate(-95.875 -216.733)" fill="#231f20"/>
  </g>
</svg>
