<svg xmlns="http://www.w3.org/2000/svg" width="11.723" height="11.716" viewBox="0 0 11.723 11.716">
  <g id="Group_3080" data-name="Group 3080" transform="translate(0.1 0.1)">
    <g id="Group_3081" data-name="Group 3081">
      <path id="Path_10862" data-name="Path 10862" d="M263.4,62.43a.24.24,0,0,1-.237-.28l.3-1.795a.241.241,0,0,1,.067-.13l4.65-4.65a.24.24,0,0,1,.34,0l1.494,1.494a.24.24,0,0,1,0,.34l-4.65,4.65a.241.241,0,0,1-.13.067l-1.795.3a.239.239,0,0,1-.04,0m.525-1.92L263.69,61.9l1.387-.232,4.426-4.426-1.154-1.154Zm1.27,1.378h0Z" transform="translate(-259.366 -54.705)" fill="#006b2d" stroke="#006b2d" stroke-width="0.2"/>
      <path id="Path_10863" data-name="Path 10863" d="M608.59,2.774a.239.239,0,0,1-.17-.07l-1.494-1.494a.24.24,0,0,1,0-.34l.682-.682a.68.68,0,0,1,.939,0l.895.9a.664.664,0,0,1,0,.938l-.682.682a.239.239,0,0,1-.17.07m-1.154-1.734,1.154,1.154.512-.512a.183.183,0,0,0,0-.259l-.9-.9a.188.188,0,0,0-.259,0Z" transform="translate(-598.113 0)" fill="#006b2d" stroke="#006b2d" stroke-width="0.2"/>
      <path id="Path_10864" data-name="Path 10864" d="M285.782,380.288a.239.239,0,0,1-.17-.07l-1.494-1.494a.24.24,0,0,1,.34-.34l1.494,1.494a.24.24,0,0,1-.17.41" transform="translate(-279.955 -372.863)" fill="#006b2d" stroke="#006b2d" stroke-width="0.2"/>
      <path id="Path_10865" data-name="Path 10865" d="M9.049,111.482H1.006A1.007,1.007,0,0,1,0,110.477v-8.044a1.007,1.007,0,0,1,1.006-1.006H5.613a.24.24,0,0,1,0,.48H1.006a.526.526,0,0,0-.525.525v8.044a.526.526,0,0,0,.525.525H9.049a.526.526,0,0,0,.525-.525v-5.082a.24.24,0,0,1,.48,0v5.082a1.007,1.007,0,0,1-1.006,1.006" transform="translate(0 -99.966)" fill="#006b2d" stroke="#006b2d" stroke-width="0.2"/>
    </g>
  </g>
</svg>
