<svg xmlns="http://www.w3.org/2000/svg" width="17.244" height="13.887" viewBox="0 0 17.244 13.887">
  <g id="Group_3036" data-name="Group 3036" transform="translate(0.255 0.25)">
    <g id="Group_3038" data-name="Group 3038" transform="translate(0 0)">
      <path id="Path_10843" data-name="Path 10843" d="M4.484,33.181a.278.278,0,0,1-.116-.025,9.447,9.447,0,0,1-4.333-4,.279.279,0,0,1,0-.272A9.559,9.559,0,0,1,8.367,24a9.378,9.378,0,0,1,4,.885.279.279,0,1,1-.236.505,8.825,8.825,0,0,0-3.764-.833A9,9,0,0,0,.6,29.02a8.889,8.889,0,0,0,4,3.629.279.279,0,0,1-.117.532" transform="translate(0 -22.327)" stroke="#000" stroke-width="0.5"/>
      <path id="Path_10844" data-name="Path 10844" d="M80.629,53.39a9.373,9.373,0,0,1-2.754-.408.279.279,0,1,1,.164-.533,8.819,8.819,0,0,0,2.59.384A9,9,0,0,0,88.4,48.37a8.955,8.955,0,0,0-2.951-3.055.279.279,0,1,1,.3-.472,9.516,9.516,0,0,1,3.218,3.39.279.279,0,0,1,0,.273,9.559,9.559,0,0,1-8.331,4.884" transform="translate(-72.262 -41.676)" stroke="#000" stroke-width="0.5"/>
      <path id="Path_10845" data-name="Path 10845" d="M24.279,13.387a.279.279,0,0,1-.2-.476L36.911.082a.279.279,0,1,1,.394.395L24.476,13.306a.278.278,0,0,1-.2.082" transform="translate(-22.326 0)" stroke="#000" stroke-width="0.5"/>
      <path id="Path_10846" data-name="Path 10846" d="M81.014,60.842a.278.278,0,0,1-.2-.08A2.75,2.75,0,0,1,80,58.789,2.792,2.792,0,0,1,82.788,56a2.749,2.749,0,0,1,1.972.819.279.279,0,0,1-.4.392,2.2,2.2,0,0,0-1.575-.653,2.234,2.234,0,0,0-2.231,2.231,2.2,2.2,0,0,0,.654,1.575.279.279,0,0,1-.2.477" transform="translate(-74.421 -52.095)" stroke="#000" stroke-width="0.5"/>
      <path id="Path_10847" data-name="Path 10847" d="M109.5,88.293a2.83,2.83,0,0,1-.562-.056.279.279,0,0,1,.11-.547,2.277,2.277,0,0,0,.453.045,2.234,2.234,0,0,0,2.231-2.231,2.3,2.3,0,0,0-.045-.453.279.279,0,0,1,.547-.109,2.857,2.857,0,0,1,.055.562,2.792,2.792,0,0,1-2.789,2.789" transform="translate(-101.138 -78.81)" stroke="#000" stroke-width="0.5"/>
    </g>
  </g>
</svg>
